<svg xmlns="http://www.w3.org/2000/svg" xmlns:xlink="http://www.w3.org/1999/xlink" xmlns:fi="http://pattern.flaticon.com/" x="0" y="0" width="700" height="350" viewBox="0 0 700 350"><rect x="0px" y="0px" width="100%" height="100%" opacity="1" fill="#f4f4f4"/><defs><g transform="matrix(0.1171872690320015 0 0 0.1171872690320015 115.99999969959322 114)" id="L1_0"><path d="M503.45,324.28H8.55c-4.71,0-8.533,3.814-8.533,8.533c0,98.801,80.379,179.188,179.188,179.188h153.59    c98.801,0,179.188-80.387,179.188-179.188C511.983,328.094,508.169,324.28,503.45,324.28z M332.795,494.935h-153.59    c-86.531,0-157.447-68.143-161.901-153.59h477.391C490.242,426.792,419.326,494.935,332.795,494.935z" fill="#69cfb5"/><path d="M435.223,119.545c0-0.623-0.009-1.246-0.068-2.193c-1.314-14.147-11.041-25.769-23.883-30.129l9.659-9.659    c16.75-16.408,18.431-42.655,3.771-61.188c-15.7-19.079-43.995-21.793-63.066-6.101c-1.084,0.896-2.133,1.843-3.183,2.893    l-10.495,10.649c-4.403-12.774-16.05-22.433-30.402-23.764c-18.9-1.032-34.899,13.473-35.914,32.262    c-0.034,0.623-0.043,1.246-0.043,1.86v13.081c-5.017-2.91-10.828-4.582-17.031-4.591c-0.614,0-1.246,0.017-2.193,0.068    c-18.243,1.698-32.279,17.373-31.972,35.547v11.605c-5.12-2.961-10.956-4.548-17.031-4.557c-0.614,0-1.237,0.017-2.184,0.068    c-18.252,1.698-32.288,17.373-31.981,35.548v126.541c0,4.719,3.823,8.533,8.533,8.533h145.057    c18.823,0,34.131-15.308,34.122-34.114c0-6.212-1.664-12.04-4.582-17.065h11.528c18.328,0.503,34.003-13.738,35.718-32.314    c0.367-6.946-1.374-13.516-4.667-19.096c7.662-0.853,14.753-4.241,20.282-9.753C431.647,137.242,435.214,128.675,435.223,119.545z     M413.148,131.593c-3.225,3.208-7.5,4.975-12.065,4.975c-0.009,0-0.017,0-0.026,0h-25.598c-4.719,0-8.533,3.823-8.533,8.533    s3.814,8.533,8.533,8.533l0.939,0.026c9.403,0.503,16.639,8.558,16.161,17.62c-0.87,9.403-8.848,16.682-18.55,16.485h-41.213    c-4.719,0-8.533,3.823-8.533,8.533s3.814,8.533,8.533,8.533c9.412,0,17.066,7.654,17.066,17.066s-7.654,17.066-17.066,17.066    H196.271V120.799c-0.162-9.446,7.091-17.526,16.161-18.38l0.93-0.026c9.395,0.008,17.031,7.654,17.04,17.04v0.06    c0,4.71,3.814,8.533,8.524,8.533c0.009,0,0.009,0,0.009,0c4.71,0,8.524-3.814,8.533-8.524v-0.008V78.135    c-0.162-9.446,7.091-17.526,16.161-18.38l0.922-0.026c9.403,0.017,17.04,7.662,17.049,17.057v0.051    c0,4.71,3.814,8.533,8.524,8.533c0.009,0,0.009,0,0.009,0c4.71,0,8.524-3.814,8.533-8.524v-0.009V34.174l0.026-0.947    c0.495-9.395,8.362-16.63,17.612-16.161c9.42,0.879,16.664,8.959,16.485,18.567v7.082c0,3.456,2.091,6.579,5.299,7.893    c3.183,1.314,6.886,0.563,9.309-1.911l23.149-23.491c0.631-0.623,1.28-1.212,1.954-1.766c11.809-9.71,29.31-8.021,38.935,3.652    c9.113,11.536,8.063,27.987-2.5,38.338l-22.441,22.441c-2.44,2.44-3.174,6.109-1.852,9.301c1.314,3.183,4.437,5.265,7.884,5.265    h7.082c0.179,0,0.307,0,0.452,0c9.318,0,17.236,7.185,18.072,16.161l0.026,0.939C418.148,124.093,416.374,128.376,413.148,131.593    z" fill="#69cfb5"/><rect x="87px" y="170px" width="337px" height="17px" transform="matrix(0.7071 -0.7071 0.7071 0.7071 -51.7312 233.5161)" fill="#69cfb5"/><rect x="315px" y="68px" width="17px" height="42px" fill="#69cfb5"/><rect x="264px" y="111px" width="17px" height="51px" fill="#69cfb5"/><rect x="213px" y="153px" width="17px" height="59px" fill="#69cfb5"/><rect x="324px" y="102px" width="42px" height="17px" fill="#69cfb5"/><rect x="273px" y="153px" width="51px" height="17px" fill="#69cfb5"/><rect x="221px" y="204px" width="59px" height="17px" fill="#69cfb5"/><path d="M159.281,39.473c-0.008-0.017-0.026-0.034-0.034-0.051c-12.04-18.03-36.512-22.928-54.533-10.888    c-0.563,0.367-1.118,0.759-1.749,1.229l-3.072,2.338l-2.952-2.125C81.326,15.411,56.777,16,41.913,31.427    c-7.278,7.543-11.186,17.475-10.99,27.962c0.196,10.487,4.454,20.265,11.989,27.535c2.193,2.116,4.633,3.976,7.261,5.529    l7.185,5.615v4.369c0,23.525,19.139,42.664,42.664,42.664s42.664-19.148,42.655-42.672v-4.369l7.552-5.896    C166.568,79.765,170.536,56.616,159.281,39.473z M139.818,78.647l-10.922,8.533c-2.065,1.613-3.277,4.096-3.277,6.724v8.533    c0,14.113-11.485,25.598-25.598,25.598c-14.113,0-25.598-11.485-25.598-25.598v-8.533c0-2.628-1.203-5.111-3.277-6.724    l-10.922-8.533c-0.324-0.256-0.674-0.486-1.032-0.691c-1.604-0.913-3.089-2.022-4.42-3.311c-4.266-4.113-6.673-9.642-6.784-15.564    c-0.111-5.922,2.099-11.536,6.212-15.803c4.343-4.505,10.154-6.775,15.973-6.775c5.546,0,11.101,2.056,15.402,6.212    c0.29,0.273,0.597,0.538,0.93,0.776l8.533,6.144c3.038,2.193,7.159,2.142,10.146-0.128l8.994-6.766    c4.949-3.311,10.879-4.471,16.716-3.319c5.819,1.16,10.845,4.514,14.147,9.446C151.372,58.544,149.119,71.582,139.818,78.647z" fill="#69cfb5"/><rect x="187px" y="8px" width="17px" height="17px" fill="#69cfb5"/><rect x="238px" y="281px" width="17px" height="17px" fill="#69cfb5"/><path d="M460.787,51.24v17.066c9.412,0,17.066,7.654,17.066,17.065s-7.654,17.066-17.066,17.066v17.065    c18.823,0,34.131-15.308,34.131-34.131C494.918,66.548,479.61,51.24,460.787,51.24z" fill="#69cfb5"/><rect x="17px" y="128px" width="17px" height="17px" fill="#69cfb5"/><rect x="0px" y="93px" width="17px" height="17px" fill="#69cfb5"/><path d="M332.795,273.083c-18.823,0-34.131,15.308-34.131,34.131h17.066c0-9.412,7.654-17.066,17.065-17.066    c9.412,0,17.066,7.654,17.066,17.066h17.065C366.926,288.391,351.618,273.083,332.795,273.083z" fill="#69cfb5"/><path d="M102.411,196.288h-1.075C97.53,181.586,84.159,170.69,68.28,170.69s-29.259,10.896-33.056,25.598h-1.075    c-18.823,0-34.131,15.308-34.131,34.131c0,18.823,15.308,34.131,34.131,34.131h68.262c18.823,0,34.131-15.308,34.131-34.131    C136.542,211.596,121.234,196.288,102.411,196.288z M102.411,247.493H34.148c-9.412,0-17.066-7.654-17.066-17.065    c0-9.412,7.654-17.066,17.066-17.066h8.533c4.71,0,8.533-3.823,8.533-8.533c0-9.412,7.654-17.065,17.066-17.065    s17.066,7.654,17.066,17.065c0,4.71,3.823,8.533,8.533,8.533h8.533c9.412,0,17.066,7.654,17.066,17.066    C119.476,239.84,111.822,247.493,102.411,247.493z" fill="#69cfb5"/><path d="M85.345,247.485H51.214c-4.71,0-8.533,3.823-8.533,8.533v34.131c0,4.719,3.823,8.533,8.533,8.533h34.131    c4.71,0,8.533-3.814,8.533-8.533v-34.131C93.878,251.308,90.055,247.485,85.345,247.485z M76.812,281.616H59.747v-17.065h17.066    V281.616z" fill="#69cfb5"/><path d="M452.254,221.887c-14.113,0-25.598,11.485-25.598,25.598s11.485,25.598,25.598,25.598    c14.113,0,25.598-11.485,25.598-25.598S466.367,221.887,452.254,221.887z M452.254,256.026c-4.71,0-8.533-3.831-8.533-8.533    c0-4.702,3.823-8.533,8.533-8.533s8.533,3.823,8.533,8.533C460.787,252.204,456.964,256.026,452.254,256.026z" fill="#69cfb5"/><path d="M452.254,187.756c-32.928,0-59.729,26.793-59.729,59.729s26.801,59.729,59.729,59.729    c32.928,0,59.729-26.793,59.729-59.729S485.182,187.756,452.254,187.756z M452.254,290.157c-23.525,0-42.664-19.147-42.664-42.664    c0-23.525,19.139-42.664,42.664-42.664c23.525,0,42.664,19.139,42.664,42.664C494.918,271.018,475.779,290.157,452.254,290.157z" fill="#69cfb5"/></g><g transform="matrix(0.1171875 0 0 0.1171875 286 117.00000617980959)" id="L1_1"><path d="M256.299,118.741c-83.556,0-151.533,67.977-151.533,151.533s67.978,151.534,151.533,151.534    s151.534-67.978,151.534-151.534S339.855,118.741,256.299,118.741z M256.299,401.807c-72.528,0-131.534-59.006-131.534-131.534    c0-72.527,59.005-131.533,131.534-131.533c72.528,0,131.534,59.005,131.534,131.533S328.827,401.807,256.299,401.807z" fill="#69cfb5"/><path d="M346.001,221.394c-2.647-4.847-8.721-6.631-13.569-3.985c-0.162,0.089-0.312,0.191-0.468,0.287    c-4.485,2.775-6.075,8.597-3.517,13.282c6.536,11.971,9.99,25.56,9.99,39.296c0,45.291-36.847,82.138-82.138,82.138    c-45.292,0-82.138-36.848-82.138-82.138c0-45.291,36.847-82.138,82.138-82.138c4.346,0,8.708,0.342,12.963,1.017    c5.278,0.838,10.222-2.618,11.329-7.773c0.039-0.179,0.084-0.355,0.113-0.539c0.864-5.455-2.857-10.578-8.312-11.442    c-5.288-0.838-10.703-1.263-16.094-1.263c-56.318,0-102.138,45.819-102.138,102.138s45.819,102.138,102.138,102.138    s102.139-45.82,102.139-102.138C358.437,253.198,354.137,236.296,346.001,221.394z" fill="#69cfb5"/><path d="M320.19,186.712c-0.46-0.46-0.97-0.88-1.52-1.24c-0.54-0.36-1.12-0.67-1.73-0.92c-0.6-0.25-1.23-0.44-1.87-0.57    c-1.29-0.26-2.62-0.26-3.91,0c-0.64,0.13-1.26,0.32-1.87,0.57c-0.6,0.25-1.18,0.56-1.72,0.92c-0.55,0.36-1.06,0.78-1.53,1.24    c-0.46,0.46-0.87,0.97-1.24,1.52c-0.36,0.54-0.67,1.12-0.92,1.73c-0.158,0.378-0.283,0.77-0.392,1.167    c-0.064,0.233-0.129,0.466-0.177,0.703c-0.129,0.639-0.19,1.299-0.19,1.949c0,0.66,0.06,1.311,0.19,1.961    c0.13,0.64,0.32,1.26,0.57,1.869c0.25,0.601,0.56,1.181,0.92,1.721c0.37,0.55,0.78,1.06,1.24,1.52c0.47,0.46,0.98,0.88,1.53,1.25    c0.54,0.36,1.12,0.67,1.72,0.92c0.61,0.25,1.23,0.44,1.87,0.57c0.65,0.13,1.31,0.189,1.96,0.189c0.65,0,1.31-0.06,1.95-0.189    c0.64-0.129,1.27-0.32,1.87-0.57c0.524-0.215,1.019-0.481,1.492-0.778c0.078-0.049,0.161-0.091,0.237-0.142    c0.55-0.37,1.06-0.79,1.52-1.25c0.46-0.46,0.88-0.97,1.24-1.52c0.36-0.54,0.67-1.12,0.92-1.721c0.25-0.609,0.44-1.239,0.57-1.869    c0.13-0.65,0.2-1.301,0.2-1.961C323.12,191.151,322.05,188.571,320.19,186.712z" fill="#69cfb5"/><path d="M511.744,413.487l-32.434-264.145c-2.257-18.384-8.03-35.879-17.16-51.997c-5.604-9.895-12.412-19.096-20.234-27.348    l-0.873-0.921c-6.664-7.031-16.632-8.905-25.398-4.774c-8.764,4.13-13.664,13.013-12.483,22.629l41.113,334.841    c0.132,1.075,0.313,2.132,0.541,3.17c3.416,15.563,17.316,26.68,33.169,26.678c1.375,0,2.768-0.083,4.166-0.255    c11.044-1.356,20.211-7.897,25.358-16.882c0.542-0.946,1.039-1.918,1.489-2.915c0.45-0.997,0.853-2.017,1.207-3.059    C511.798,423.823,512.386,418.718,511.744,413.487z M423.014,84.493c-0.049-0.401-0.18-1.47,1.159-2.101    c0.367-0.173,0.689-0.24,0.969-0.24c0.741,0,1.186,0.47,1.386,0.682l0.873,0.921c6.708,7.076,12.544,14.964,17.348,23.446    c7.827,13.818,12.777,28.817,14.712,44.578l17.286,140.78l-27.767,3.409L423.014,84.493z M491.028,422.743    c-1.823,4.616-6.049,8.124-11.312,8.77c-7.659,0.946-14.649-4.523-15.589-12.179l-12.71-103.515l27.767-3.409l12.71,103.515    C492.188,418.316,491.855,420.644,491.028,422.743z" fill="#69cfb5"/><path d="M123.326,71.73c-5.484-0.676-10.471,3.226-11.144,8.707l-9.095,74.072c-1.418,11.544-10.747,20.253-22.292,20.957    l-6.629-0.814l11.961-97.413c0.673-5.481-3.225-10.471-8.707-11.145c-5.483-0.679-10.471,3.226-11.144,8.707l-11.961,97.413    l-6.635-0.814c-11.03-3.478-17.973-14.184-16.556-25.727l9.095-74.071c0.673-5.481-3.225-10.471-8.707-11.145    c-5.481-0.68-10.471,3.226-11.144,8.707l-9.095,74.071c-2.275,18.533,7.184,35.909,23.14,44.243L0.393,406.415    c-0.004,0.024-0.008,0.05-0.012,0.075C-1,415.849,1.397,425.148,7.13,432.673c5.733,7.525,14.062,12.305,23.444,13.457    l0.182,0.022c1.449,0.178,2.895,0.266,4.33,0.266c7.909,0,15.512-2.674,21.774-7.726c7.399-5.969,11.949-14.47,12.812-23.937    l20.108-220.477c17.5-4.225,30.884-18.797,33.159-37.331l9.095-74.072C132.706,77.394,128.808,72.404,123.326,71.73z     M49.756,412.94c-0.368,4.029-2.304,7.646-5.453,10.187c-3.149,2.541-7.091,3.675-11.102,3.176l-0.182-0.022    c-3.996-0.49-7.541-2.524-9.98-5.727c-2.434-3.194-3.455-7.139-2.877-11.111l33.741-217.128l7.891,0.969    c0.004,0,0.007,0.001,0.011,0.002c0.003,0,0.006,0,0.009,0l7.885,0.968L49.756,412.94z" fill="#69cfb5"/></g><g transform="matrix(0.12498463690280914 0 0 0.12498463690280914 199 207.99999527035698)" id="L1_3"><rect x="312px" y="103px" width="16px" height="16px" transform="matrix(1 -0.0054 0.0054 1 -0.5963 1.7244)" fill="#69cfb5"/><path d="M472.059,255.405h-113.6l9.6-143.472c0.14-2.216-0.639-4.392-2.152-6.016c-1.565-1.542-3.653-2.438-5.848-2.512l-16,0.088    l0.08,16h7.408l-1.912,28.616l-23.2,12.872c-24.16,13.333-53.163,14.608-78.4,3.448v-44.448l48.04-0.248l-0.08-16l-47.936,0.248    V67.797l84.296-53.6l-8.592-13.544l-88,56c-2.308,1.469-3.705,4.016-3.704,6.752v40.656l-111.96,0.576    c-4.418,0.025-7.979,3.628-7.954,8.046c0.001,0.164,0.007,0.327,0.018,0.49l8.904,133.52c-4.673,8.497-8.428,17.468-11.2,26.76    c-14.04-25.117-40.553-40.69-69.328-40.72c-4.418,0-8,3.582-8,8c-0.012,15.525,4.551,30.71,13.12,43.656    c-3.465,1.706-6.693,3.857-9.6,6.4l-2.32,2.048c-28.226,24.792-40.025,63.401-30.48,99.736l4.888,18.888    c6.135,23.72,20.805,44.343,41.2,57.92c17.587,11.805,40.327,12.688,58.776,2.28l-0.448-0.8    c14.976,4.431,30.431,7.042,46.032,7.776c1.6,0.08,3.2,0.08,4.856,0.112v0.656h105.496c119.187,0.106,215.894-96.428,216-215.616    c0-0.128,0-0.256,0-0.384C480.059,258.987,476.477,255.405,472.059,255.405z M355.402,275.765v-4.36h79.672    c-3.08,64.858-42.504,122.422-101.864,148.736c-14.812,6.548-30.486,10.942-46.544,13.048    c12.003-10.453,22.596-22.423,31.512-35.608C342.511,361.623,355.48,319.183,355.402,275.765z M232.059,120.061v38.68    c-26.24-7.274-54.285-3.992-78.136,9.144l-21.296,11.832l-3.936-59.128L232.059,120.061z M145.21,238.949l0.976-1.264    l-10.216-7.88l-2.168-32.408l27.856-15.528c24.373-13.474,53.674-14.661,79.056-3.2c29.996,13.57,64.639,12.176,93.448-3.76    l14.136-7.848l-3.584,53.792c-1.785-1.374-3.736-2.516-5.808-3.4l-11.952-4.984c-6.382-2.679-13.639-2.296-19.704,1.04    c-6.217,3.403-10.533,9.467-11.712,16.456c-8.482,49.146-34.087,93.704-72.28,125.776c-2.813-24.318-14.532-46.732-32.896-62.92    l-2.32-2.048c-16.149-14.377-40.405-14.718-56.952-0.8l-10.072,8.4C123.537,276.736,131.9,256.193,145.21,238.949z     M103.483,303.653c-28.245-3.892-50.452-26.099-54.344-54.344C77.378,253.211,99.58,275.413,103.483,303.653z M58.218,456.077    c-17.118-11.401-29.432-28.713-34.584-48.624l-4.896-18.88c-8.008-30.52,1.919-62.945,25.64-83.752v0l2.32-2.048    c2.841-2.423,6.142-4.249,9.704-5.368c14.832,14.623,34.828,22.814,55.656,22.8c0.51-0.052,1.014-0.154,1.504-0.304    c4.548-0.291,8.89-2.007,12.408-4.904l15.32-12.8c10.5-8.825,25.886-8.604,36.128,0.52l2.32,2.048    c17.954,15.814,28.227,38.595,28.192,62.52c-31.124,21.833-67.561,34.864-105.472,37.72l-35.432,2.664    c-4.182,0.315-7.412,3.806-7.4,8v29.144c0.009,2.849,1.532,5.479,4,6.904l1.112,0.656c6.547,3.801,13.311,7.218,20.256,10.232    C75.579,463.65,66.097,461.338,58.218,456.077z M154.459,462.653l-0.008,0.008c-27.651-1.316-54.622-9.015-78.8-22.496v-17.096    l28-2.112c104.155-7.794,189.704-85.347,207.648-188.24c0.354-2.189,1.697-4.092,3.64-5.16c1.797-1,3.955-1.115,5.848-0.312    l11.952,4.992c4.023,1.667,6.643,5.597,6.632,9.952v33.6c0.071,40.226-11.941,79.546-34.48,112.864    C271.247,438.055,214.126,466.154,154.459,462.653z M264.059,463.405h-25.496c8.837-3.804,17.362-8.295,25.496-13.432v0.744    c26.051,0.049,51.82-5.386,75.632-15.952c65.139-28.881,108.293-92.172,111.384-163.36h12.824    C459.71,378.712,371.447,463.513,264.059,463.405z" fill="#69cfb5"/><rect x="368px" y="287px" width="16px" height="16px" fill="#69cfb5"/><rect x="344px" y="367px" width="16px" height="16px" fill="#69cfb5"/><rect x="368px" y="335px" width="16px" height="16px" fill="#69cfb5"/></g><g transform="matrix(0.0843528202016073 -0.025954715243107294 0.025954715243107294 0.0843528202016073 -2.91044629220017 35.30958155207662)" id="L1_6"><path d="m511.910156 335.675781c-2.699218-76.269531-40.917968-111.296875-72.503906-127.25-38.316406-19.355469-62.636719-57.519531-63.464844-99.601562l-.023437-1.15625c-.601563-29.070313-12.292969-56.199219-32.917969-76.382813-20.613281-20.175781-47.972656-31.285156-77.039062-31.285156-.011719 0-.019532 0-.027344 0-46.464844.0078125-88.121094 29.429688-103.648438 73.191406-.296875.832032-.558594 1.78125-.824218 2.988282-13.066407 58.917968-47.671876 111.671874-97.449219 148.535156-19.007813 14.078125-34.042969 30.730468-44.683594 49.5-12.824219 22.617187-19.328125 48.425781-19.328125 76.710937 0 43.011719 16.582031 83.4375 46.6875 113.828125 30.183594 30.46875 70.414062 47.246094 113.285156 47.246094 23.589844 0 46.3125-5.019531 67.535156-14.921875 36.679688-17.109375 77.238282-22.90625 117.289063-16.761719 7.28125 1.117188 14.730469 1.683594 22.144531 1.683594 39.632813 0 78.132813-16.339844 105.625-44.832031 26.710938-27.675781 40.683594-63.71875 39.34375-101.492188zm-53.730468 87.605469c-23.746094 24.605469-57.003907 38.71875-91.238282 38.71875-6.402344 0-12.832031-.488281-19.109375-1.453125-43.972656-6.746094-88.503906-.382813-128.777343 18.40625-18.558594 8.65625-38.4375 13.046875-59.082032 13.046875-77.183594 0-139.976562-63.285156-139.976562-141.074219 0-45.605469 18.8125-82.660156 55.914062-110.136719 53.652344-39.730468 90.964844-96.652343 105.070313-160.277343.058593-.273438.113281-.503907.144531-.621094 12.710938-35.8125 46.792969-59.882813 84.8125-59.890625h.023438c49.421874 0 88.941406 38.6875 89.964843 88.085938l.019531 1.136718c.976563 49.5 29.503907 94.355469 74.449219 117.054688 38.9375 19.671875 59.640625 56.714844 61.53125 110.105468 1.144531 32.300782-10.839843 63.160157-33.746093 86.898438zm0 0" fill="#69cfb5"/><path d="m440.371094 267.957031c-3.171875-4.429687-9.550782-5.46875-13.941406-2.3125-4.476563 3.21875-5.496094 9.472657-2.324219 13.953125 10.347656 14.46875 15.828125 31.550782 15.828125 49.398438 0 23.828125-9.652344 44.253906-26.207032 60.511718-5.03125 4.945313-8.476562 13.777344-3.3125 18.582032 6.488282 6.035156 15.203126-.625 19.773438-5.476563 26.277344-27.902343 36.503906-69.613281 24.582031-106.214843-3.320312-10.167969-8.167969-19.738282-14.398437-28.441407zm0 0" fill="#69cfb5"/><path d="m388.628906 411.789062c-2.5-1.820312-5.828125-2.390624-8.816406-1.480468-5.273438 1.609375-8.25 7.210937-6.640625 12.480468.640625 2.089844 1.910156 3.867188 3.667969 5.160157 1.699218 1.238281 3.800781 1.917969 5.890625 1.917969.988281 0 1.980469-.140626 2.929687-.4375 5.269532-1.613282 8.246094-7.210938 6.636719-12.480469-.636719-2.089844-1.90625-3.871094-3.667969-5.160157zm0 0" fill="#69cfb5"/><path d="m209.964844 232c-55.132813 0-99.984375 44.859375-99.984375 100s44.851562 100 99.984375 100c55.132812 0 99.988281-44.859375 99.988281-100s-44.855469-100-99.988281-100zm0 180c-44.105469 0-79.988282-35.886719-79.988282-80s35.882813-80 79.988282-80c44.105468 0 79.988281 35.886719 79.988281 80s-35.882813 80-79.988281 80zm0 0" fill="#69cfb5"/></g><g transform="matrix(0.12096773833036423 0 0 0.12096773833036423 93 289)" id="L1_8"><path d="m369.335938 0c-48.289063 0-91.695313 26.832031-113.289063 70.015625l-106.238281 212.480469-5.808594-5.808594-131.3125 131.3125 12 12-14.054688 14.0625c-6.855468 6.847656-10.632812 15.96875-10.632812 25.65625 0 20.007812 16.28125 36.28125 36.289062 36.28125 9.695313 0 18.808594-3.777344 25.65625-10.625l14.054688-14.0625 12 12 131.3125-131.3125-5.808594-5.808594 212.480469-106.238281c43.183594-21.59375 70.015625-65.007813 70.015625-113.289063 0-69.839843-56.824219-126.664062-126.664062-126.664062zm77.535156 60.441406c-6.605469 63.085938-43.535156 120.445313-99.03125 152.160156l-124 70.878907zm-234.34375 211.726563 70.871094-124.007813c31.714843-55.496094 89.074218-92.433594 152.167968-99.039062zm57.832031-195c18.863281-37.726563 56.792969-61.167969 98.976563-61.167969 22.105468 0 42.664062 6.585938 59.96875 17.792969-66.335938 8.429687-126.304688 47.832031-159.792969 106.421875l-95.28125 166.707031-12.503907-12.507813zm-219.726563 396.894531c-3.832031 3.824219-8.929687 5.9375-14.34375 5.9375-11.183593 0-20.289062-9.105469-20.289062-20.28125 0-5.414062 2.113281-10.503906 5.945312-14.34375l14.054688-14.0625 28.6875 28.6875zm37.367188-13.375-52.6875-52.6875 108.6875-108.6875 52.6875 52.6875zm330.832031-235.046875-217.257812 108.625-12.496094-12.496094 166.707031-95.28125c58.597656-33.496093 98-93.464843 106.414063-159.800781 11.214843 17.304688 17.800781 37.871094 17.800781 59.976562 0 42.183594-23.441406 80.113282-61.167969 98.976563zm0 0" fill="#69cfb5"/><path d="m58.929688 401.792969 15.859374-15.867188 11.316407 11.308594-15.855469 15.871094zm0 0" fill="#69cfb5"/><path d="m90.796875 369.882812 16.039063-16.039062 11.3125 11.316406-16.035157 16.035156zm0 0" fill="#69cfb5"/></g><path d="m353.938,17.072c-3.905-3.905-3.905-10.237 0-14.142 3.906-3.906 10.236-3.906 14.143,0l1.345,1.344c3.905,3.905 3.905,10.237 0,14.142-1.953,1.953-4.512,2.929-7.071,2.929s-5.118-0.976-7.071-2.929l-1.346-1.344zm-1.345,111.355c15.947,0 28.922,12.974 28.922,28.92s-12.975,28.92-28.922,28.92-28.921-12.974-28.921-28.92 12.974-28.92 28.921-28.92zm0,20c-4.919,0-8.921,4.002-8.921,8.92 0,4.919 4.002,8.92 8.921,8.92 4.92,0 8.922-4.001 8.922-8.92-5.68434e-14-4.918-4.002-8.92-8.922-8.92zm45.312,124.914v11.99c0,15.622-12.709,28.331-28.33,28.331h-8.332v53.915c0,23.705-19.285,42.99-42.99,42.99h-225.938c-23.704,0-42.989-19.285-42.989-42.99v-53.915h-8.332c-15.622,0-28.331-12.709-28.331-28.331v-11.99c0-15.622 12.709-28.331 28.331-28.331h8.332v-29.551c0-5.523 4.478-10 10-10h291.917c5.522,0 10,4.477 10,10v29.551h8.332c15.621-2.84217e-14 28.33,12.709 28.33,28.331zm-348.58-8.331h-8.332c-4.594,0-8.331,3.737-8.331,8.331v11.99c0,4.594 3.737,8.331 8.331,8.331h8.332v-28.652zm291.917-39.551h-271.917v142.118c1.42109e-14,12.677 10.313,22.99 22.989,22.99h225.938c12.677,0 22.99-10.313 22.99-22.99v-142.118zm36.663,47.882c0-4.594-3.737-8.331-8.33-8.331h-8.332v28.652h8.332c4.593,0 8.33-3.737 8.33-8.331v-11.99zm-51.663-193.193c2.558,0 5.116-0.976 7.068-2.926l1.346-1.345c3.907-3.904 3.909-10.235 0.005-14.142-3.902-3.908-10.235-3.909-14.142-0.005l-1.346,1.345c-3.907,3.904-3.909,10.235-0.005,14.142 1.953,1.954 4.514,2.931 7.074,2.931zm-82.886,105.539c0,5.523 4.478,10 10,10s10-4.477 10-10c0-7.899 6.427-14.326 14.325-14.326 7.899,0 14.326,6.427 14.326,14.326 0,5.523 4.478,10 10,10s10-4.477 10-10c0-18.927-15.398-34.326-34.326-34.326-18.927-2.84217e-14-34.325,15.398-34.325,34.326zm-186.776-14.968c-1.271-5.375 2.056-10.762 7.431-12.033l108.636-25.685-1.916-8.109c-3.594-15.203 5.851-30.495 21.053-34.088l11.668-2.758c15.197-3.594 30.494,5.849 34.089,21.051l1.918,8.109 108.635-25.686c5.373-1.269 10.762,2.056 12.032,7.431 1.271,5.375-2.056,10.762-7.431,12.033l-284.082,67.166c-0.773,0.183-1.548,0.271-2.31,0.271-4.53-0.001-8.635-3.101-9.723-7.702zm133.614-50.428l1.917,8.108 27.884-6.593-1.917-8.108c-0.905-3.828-4.334-6.415-8.107-6.415-0.633,0-1.274,0.073-1.917,0.224l-11.668,2.759c-4.472,1.058-7.249,5.554-6.192,10.025z" transform="matrix(0.14613936841487885 0 0 0.14613936841487885 19.000002497499167 183)" id="L1_9" fill="#69cfb5"/><g transform="matrix(0.12016534805297852 0 0 0.12016534805297852 126 9)" id="L1_10"><path d="m268 266.625c4.648438-4.648438 7.3125-11.082031 7.3125-17.65625 0-13.769531-11.199219-24.96875-24.96875-24.96875-6.671875 0-12.945312 2.59375-17.65625 7.3125l-118.0625 118.0625c-4.648438 4.648438-7.3125 11.082031-7.3125 17.65625 0 13.769531 11.199219 24.96875 24.96875 24.96875 6.671875 0 12.941406-2.59375 17.65625-7.3125zm-135.71875 109.375c-4.945312 0-8.96875-4.023438-8.96875-8.96875 0-2.359375.960938-4.671875 2.625-6.34375l118.0625-118.0625c1.695312-1.695312 3.945312-2.625 6.34375-2.625 4.945312 0 8.96875 4.023438 8.96875 8.96875 0 2.359375-.960938 4.671875-2.625 6.34375l-118.0625 118.0625c-1.695312 1.695312-3.945312 2.625-6.34375 2.625zm0 0" fill="#69cfb5"/><path d="m203.3125 232.96875c0-13.769531-11.199219-24.96875-24.96875-24.96875-6.671875 0-12.945312 2.59375-17.65625 7.3125l-94.0625 94.0625c-4.648438 4.648438-7.3125 11.082031-7.3125 17.65625 0 13.769531 11.199219 24.96875 24.96875 24.96875 6.671875 0 12.941406-2.59375 17.65625-7.3125l94.0625-94.0625c4.648438-4.648438 7.3125-11.082031 7.3125-17.65625zm-18.625 6.34375-94.0625 94.0625c-1.695312 1.695312-3.945312 2.625-6.34375 2.625-4.945312 0-8.96875-4.023438-8.96875-8.96875 0-2.359375.960938-4.671875 2.625-6.34375l94.0625-94.0625c1.695312-1.695312 3.945312-2.625 6.34375-2.625 4.945312 0 8.96875 4.023438 8.96875 8.96875 0 2.359375-.960938 4.671875-2.625 6.34375zm0 0" fill="#69cfb5"/><path d="m248.6875 303.3125-94.0625 94.0625c-4.648438 4.648438-7.3125 11.082031-7.3125 17.65625 0 13.769531 11.199219 24.96875 24.96875 24.96875 6.671875 0 12.941406-2.59375 17.65625-7.3125l94.0625-94.0625c4.648438-4.648438 7.3125-11.082031 7.3125-17.65625 0-13.769531-11.199219-24.96875-24.96875-24.96875-6.671875 0-12.945312 2.59375-17.65625 7.3125zm26.625 17.65625c0 2.359375-.960938 4.671875-2.625 6.34375l-94.0625 94.0625c-1.695312 1.695312-3.945312 2.625-6.34375 2.625-4.945312 0-8.96875-4.023438-8.96875-8.96875 0-2.359375.960938-4.671875 2.625-6.34375l94.0625-94.0625c1.695312-1.695312 3.945312-2.625 6.34375-2.625 4.945312 0 8.96875 4.023438 8.96875 8.96875zm0 0" fill="#69cfb5"/><path d="m499.3125 41.9375c0-23.121094-18.816406-41.9375-41.945312-41.9375-11.191407 0-21.726563 4.359375-29.65625 12.28125l-174.933594 174.941406c-15.425782-7.132812-32.519532-11.222656-50.601563-11.222656-32.351562 0-62.777343 12.601562-85.65625 35.488281l-116.519531 116.511719 171.3125 171.3125 116.519531-116.511719c22.878907-22.890625 35.480469-53.296875 35.480469-85.65625 0-18.082031-4.089844-35.183593-11.222656-50.609375l174.933594-174.933594c7.929687-7.921874 12.289062-18.449218 12.289062-29.664062zm-192 113.375 36.6875 36.6875-12.6875 12.6875-36.6875-36.6875zm-30.792969 216.175781-105.207031 105.199219-148.6875-148.6875 105.207031-105.199219c19.855469-19.855469 46.265625-30.800781 74.34375-30.800781 57.96875 0 105.136719 47.167969 105.136719 105.144531 0 28.078125-10.9375 54.480469-30.792969 74.34375zm-9.121093-176.265625 15.914062-15.910156 36.6875 36.6875-15.910156 15.910156c-9.449219-14.71875-21.96875-27.238281-36.691406-36.6875zm208.3125-134.941406-120.398438 120.40625-36.6875-36.6875 120.398438-120.398438c4.90625-4.90625 11.425781-7.601562 18.34375-7.601562 14.304687 0 25.945312 11.632812 25.945312 25.9375 0 6.933594-2.695312 13.445312-7.601562 18.34375zm0 0" fill="#69cfb5"/></g><g transform="matrix(0.10029002279043198 0 0 0.10029002279043198 227.31748056039214 25.323199690495926)" id="L1_11"><path d="M510.646,261.469C468.003,185.134,397.9,138.456,315.733,129.806c-41.195-52.03-170.456-65.211-176.035-65.754     c-3.635-0.375-7.292,1.208-9.521,4.167c-2.24,2.938-2.792,6.833-1.458,10.281c12.673,32.896,25.656,70.313,29.092,85.621     c-23.473,10.741-43.99,22.163-57.217,31.681c-28.688-45.896-87.25-46.469-89.927-46.469C4.771,149.333,0,154.104,0,160     c0,61.802,21.542,92.823,35.948,106.667C21.542,280.51,0,311.531,0,373.333C0,379.229,4.771,384,10.667,384     c2.677,0,61.24-0.573,89.927-46.469c17.573,12.646,47.957,28.637,81.159,41.931c-7.337,11.867-11.086,30.742-11.086,57.871     c0,5.896,4.771,10.667,10.667,10.667c3.172,0,75.708-0.629,111.832-43.003c91.87-1.775,170.978-49.891,217.48-133.133     C512.448,268.635,512.448,264.698,510.646,261.469z M154.906,87.417c35.841,5.188,94.682,17.952,127.934,40.799     c-30.66,1.198-69.78,12.79-105.243,27.336C172.875,136.802,162.398,107.509,154.906,87.417z M192.25,426.052     c1.421-29.671,8.267-37.254,10.186-38.806c20.786,7.296,41.846,13.094,60.969,16.004     C240.266,419.531,208.723,424.598,192.25,426.052z M201.198,386.854l0.004-0.029c0.029,0.01,0.059,0.018,0.087,0.029     C201.229,386.846,201.262,386.863,201.198,386.854z M288,384c-62.333,0-164.25-51.177-183.125-70.49     c-2.021-2.073-4.781-3.208-7.625-3.208c-0.646,0-1.302,0.063-1.948,0.177c-3.49,0.646-6.438,3-7.844,6.26     c-14.396,33.385-48.25,42.5-65.844,44.99c3.333-66.844,34.969-84.708,36.594-85.573c3.51-1.802,5.677-5.438,5.729-9.385     c0.052-3.99-2.188-7.708-5.719-9.583c-1.427-0.76-33.25-18.5-36.604-85.521c17.583,2.573,51.562,11.823,65.844,44.927     c1.406,3.26,4.354,5.615,7.844,6.26c3.521,0.656,7.094-0.49,9.573-3.031c18.875-19.313,120.792-70.49,183.125-70.49     c84.219,0,157.167,42.677,201.042,117.333C445.167,341.323,372.219,384,288,384z" fill="#69cfb5"/><path d="M320,266.666c0-49.083,19.365-79.146,19.563-79.448c3.229-4.917,1.875-11.521-3.021-14.771     c-4.896-3.229-11.5-1.906-14.75,2.969c-0.948,1.417-23.125,35.333-23.125,91.25c0,55.917,22.177,89.833,23.125,91.25     c2.052,3.083,5.438,4.75,8.885,4.75c2.031,0,4.083-0.583,5.906-1.792c4.906-3.271,6.229-9.885,2.958-14.792     C339.344,345.792,320,316.198,320,266.666z" fill="#69cfb5"/><path d="M293.875,172.448c-4.906-3.229-11.49-1.906-14.75,2.969C278.177,176.833,256,210.75,256,266.666     c0,29.865,6.437,53.333,11.844,67.76c1.604,4.281,5.667,6.927,9.99,6.927c1.24,0,2.51-0.219,3.74-0.677     c5.521-2.063,8.313-8.208,6.25-13.729c-4.781-12.781-10.49-33.615-10.49-60.281c0-49.083,19.365-79.146,19.563-79.448     C300.125,182.302,298.771,175.698,293.875,172.448z" fill="#69cfb5"/><circle cx="383" cy="234" r="21" fill="#69cfb5"/></g><g transform="matrix(0.07552465207378356 -0.03776232744631579 0.03776232744631579 0.07552465207378356 296.24855410275177 295.6530715029215)" id="L1_12"><path d="m330.851562 73.726562c2.667969 0 5.179688-1.039062 7.070313-2.921874 3.898437-3.90625 3.898437-10.269532 0-14.171876-1.890625-1.894531-4.402344-2.9375-7.070313-2.9375-2.671874 0-5.191406 1.042969-7.070312 2.9375-3.902344 3.902344-3.902344 10.265626 0 14.171876 1.878906 1.882812 4.390625 2.921874 7.070312 2.921874zm0 0" fill="#69cfb5"/><path d="m397.101562 169.738281c-19.0625-15.75-43.925781-24.644531-77.144531-27.402343 8.625-6.152344 17.296875-13.503907 25.738281-21.957032 36.652344-36.710937 62.503907-90.066406 40.355469-112.25-7.4375-7.453125-22.542969-13.578125-52.25-.4375-19.375 8.570313-40.808593 23.828125-58.8125 41.863282-9.65625 9.667968-17.855469 19.640624-24.488281 29.496093v-19.785156c0-3.085937-1.417969-5.996094-3.84375-7.894531-2.429688-1.898438-5.59375-2.570313-8.582031-1.824219l-40 10.015625c-4.449219 1.117188-7.574219 5.121094-7.574219 9.71875v78.816406c-14.835938-4.410156-30.484375-6.699218-46.457031-6.699218-40.9375 0-76.066407 12.542968-101.585938 36.277343-27.777343 25.832031-42.457031 63.871094-42.457031 110.015625 0 49.550782 16.789062 104.582032 44.90625 147.203125 32.804688 49.722657 77.230469 77.105469 125.09375 77.105469 22.570312 0 35.488281-6.5625 50-16.945312 14.511719 10.382812 27.429688 16.945312 50 16.945312 26.15625 0 50.574219-6.398438 72.582031-19.023438 20.539063-11.785156 38.542969-28.722656 53.511719-50.34375 28.3125-40.898437 43.90625-95.925781 43.90625-154.941406 0-55.527344-14.03125-94.109375-42.898438-117.953125zm-107.972656-106.019531c16.324219-16.351562 35.550782-30.09375 52.75-37.699219 9.527344-4.214843 17.105469-5.902343 22.402344-5.902343 3.691406 0 6.273438.824218 7.628906 2.179687 3.378906 3.386719 3.675782 14.203125-3.285156 30.730469-7.425781 17.644531-20.9375 37.027344-37.070312 53.1875-16.03125 16.054687-33.71875 28.3125-49.804688 34.507812-1.878906.726563-3.707031 1.339844-5.480469 1.867188-4.007812.484375-7.976562 1.109375-11.902343 1.878906l45.261718-45.335938c3.902344-3.910156 3.902344-10.257812 0-14.164062-1.878906-1.894531-4.398437-2.9375-7.070312-2.9375-2.667969 0-5.179688 1.042969-7.070313 2.9375l-44.703125 44.777344c.296875-4.640625 1.589844-10.152344 3.890625-16.140625 6.1875-16.113281 18.421875-33.828125 34.453125-49.886719zm-78.628906 13.382812 20-5.007812v83.027344c-3.566406 1.59375-7.074219 3.304687-10.5 5.164062-3.105469-1.683594-6.277344-3.253906-9.5-4.71875zm59.5 414.867188c-19.945312 0-28.804688-5.953125-44.003906-17.359375-1.777344-1.332031-3.886719-2-5.996094-2s-4.21875.667969-5.996094 2c-15.199218 11.40625-24.058594 17.359375-44.003906 17.359375-40.925781 0-79.425781-24.191406-108.40625-68.117188-26.042969-39.476562-41.59375-90.378906-41.59375-136.160156 0-93.09375 64.078125-126.261718 124.042969-126.261718 25.492187 0 49.992187 6.5625 70.847656 18.980468 3.148437 1.878906 7.070313 1.878906 10.21875 0 20.855469-12.417968 45.355469-18.980468 70.847656-18.980468 40.703125 0 68.796875 7.550781 88.417969 23.761718 23.972656 19.800782 35.625 53.332032 35.625 102.5 0 101.511719-51.523438 204.277344-150 204.277344zm0 0" fill="#69cfb5"/><path d="m122.210938 424.277344c-15.132813-9.308594-29.207032-27.960938-39.636719-52.523438-9.324219-21.964844-13.574219-43.527344-13.574219-54.265625 0-5.53125-4.476562-10.015625-10-10.015625s-10 4.484375-10 10.015625c0 16.023438 5.957031 40.402344 15.167969 62.105469 8.519531 20.058594 23.6875 47.058594 47.574219 61.753906 1.632812 1.003906 3.4375 1.484375 5.222656 1.484375 3.363281 0 6.644531-1.695312 8.53125-4.777343 2.890625-4.710938 1.421875-10.882813-3.285156-13.777344zm0 0" fill="#69cfb5"/><path d="m375.710938 355.996094c-1.210938-.5-2.480469-.75-3.769532-.75-4.089844 0-7.722656 2.453125-9.261718 6.242187-4.289063 10.546875-10.539063 22.105469-18.070313 33.414063-3.050781 4.597656-1.808594 10.835937 2.78125 13.890625 1.648437 1.101562 3.558594 1.683593 5.539063 1.683593 3.351562 0 6.472656-1.671874 8.332031-4.464843 8.378906-12.601563 15.089843-25.042969 19.9375-36.960938 1.011719-2.484375.992187-5.199219-.046875-7.671875-1.03125-2.46875-2.972656-4.378906-5.441406-5.382812zm0 0" fill="#69cfb5"/><path d="m328.082031 421.785156c-2.761719 0-5.320312 1.101563-7.230469 3.105469-1.839843 1.933594-2.832031 4.464844-2.769531 7.140625.070313 2.671875 1.160157 5.167969 3.089844 7.011719 1.867187 1.792969 4.328125 2.773437 6.910156 2.773437 2.757813 0 5.328125-1.101562 7.226563-3.09375.011718 0 .011718-.011718.011718-.011718 3.800782-3.996094 3.648438-10.335938-.328124-14.152344-1.871094-1.78125-4.320313-2.773438-6.910157-2.773438zm0 0" fill="#69cfb5"/></g></defs><g fi:class="KUsePattern" opacity="0.2"><pattern id="pattern_L1_0" width="350" height="350" patternUnits="userSpaceOnUse"><use xlink:href="#L1_0" x="-350" y="-350"/><use xlink:href="#L1_0" x="0" y="-350"/><use xlink:href="#L1_0" x="350" y="-350"/><use xlink:href="#L1_0" x="-350" y="0"/><use xlink:href="#L1_0" x="0" y="0"/><use xlink:href="#L1_0" x="350" y="0"/><use xlink:href="#L1_0" x="-350" y="350"/><use xlink:href="#L1_0" x="0" y="350"/><use xlink:href="#L1_0" x="350" y="350"/></pattern><rect x="0" y="0" width="100%" height="100%" fill="url(#pattern_L1_0)"/></g><g fi:class="KUsePattern" opacity="0.2"><pattern id="pattern_L1_1" width="350" height="350" patternUnits="userSpaceOnUse"><use xlink:href="#L1_1" x="-350" y="-350"/><use xlink:href="#L1_1" x="0" y="-350"/><use xlink:href="#L1_1" x="350" y="-350"/><use xlink:href="#L1_1" x="-350" y="0"/><use xlink:href="#L1_1" x="0" y="0"/><use xlink:href="#L1_1" x="350" y="0"/><use xlink:href="#L1_1" x="-350" y="350"/><use xlink:href="#L1_1" x="0" y="350"/><use xlink:href="#L1_1" x="350" y="350"/></pattern><rect x="0" y="0" width="100%" height="100%" fill="url(#pattern_L1_1)"/></g><g fi:class="KUsePattern" opacity="0.2"><pattern id="pattern_L1_3" width="350" height="350" patternUnits="userSpaceOnUse"><use xlink:href="#L1_3" x="-350" y="-350"/><use xlink:href="#L1_3" x="0" y="-350"/><use xlink:href="#L1_3" x="350" y="-350"/><use xlink:href="#L1_3" x="-350" y="0"/><use xlink:href="#L1_3" x="0" y="0"/><use xlink:href="#L1_3" x="350" y="0"/><use xlink:href="#L1_3" x="-350" y="350"/><use xlink:href="#L1_3" x="0" y="350"/><use xlink:href="#L1_3" x="350" y="350"/></pattern><rect x="0" y="0" width="100%" height="100%" fill="url(#pattern_L1_3)"/></g><g fi:class="KUsePattern" opacity="0.2"><pattern id="pattern_L1_6" width="350" height="350" patternUnits="userSpaceOnUse"><use xlink:href="#L1_6" x="-350" y="-350"/><use xlink:href="#L1_6" x="0" y="-350"/><use xlink:href="#L1_6" x="350" y="-350"/><use xlink:href="#L1_6" x="-350" y="0"/><use xlink:href="#L1_6" x="0" y="0"/><use xlink:href="#L1_6" x="350" y="0"/><use xlink:href="#L1_6" x="-350" y="350"/><use xlink:href="#L1_6" x="0" y="350"/><use xlink:href="#L1_6" x="350" y="350"/></pattern><rect x="0" y="0" width="100%" height="100%" fill="url(#pattern_L1_6)"/></g><g fi:class="KUsePattern" opacity="0.2"><pattern id="pattern_L1_8" width="350" height="350" patternUnits="userSpaceOnUse"><use xlink:href="#L1_8" x="-350" y="-350"/><use xlink:href="#L1_8" x="0" y="-350"/><use xlink:href="#L1_8" x="350" y="-350"/><use xlink:href="#L1_8" x="-350" y="0"/><use xlink:href="#L1_8" x="0" y="0"/><use xlink:href="#L1_8" x="350" y="0"/><use xlink:href="#L1_8" x="-350" y="350"/><use xlink:href="#L1_8" x="0" y="350"/><use xlink:href="#L1_8" x="350" y="350"/></pattern><rect x="0" y="0" width="100%" height="100%" fill="url(#pattern_L1_8)"/></g><g fi:class="KUsePattern" opacity="0.2"><pattern id="pattern_L1_10" width="350" height="350" patternUnits="userSpaceOnUse"><use xlink:href="#L1_10" x="-350" y="-350"/><use xlink:href="#L1_10" x="0" y="-350"/><use xlink:href="#L1_10" x="350" y="-350"/><use xlink:href="#L1_10" x="-350" y="0"/><use xlink:href="#L1_10" x="0" y="0"/><use xlink:href="#L1_10" x="350" y="0"/><use xlink:href="#L1_10" x="-350" y="350"/><use xlink:href="#L1_10" x="0" y="350"/><use xlink:href="#L1_10" x="350" y="350"/></pattern><rect x="0" y="0" width="100%" height="100%" fill="url(#pattern_L1_10)"/></g><g fi:class="KUsePattern" opacity="0.15"><pattern id="pattern_L1_9" width="350" height="350" patternUnits="userSpaceOnUse"><use xlink:href="#L1_9" x="-350" y="-350"/><use xlink:href="#L1_9" x="0" y="-350"/><use xlink:href="#L1_9" x="350" y="-350"/><use xlink:href="#L1_9" x="-350" y="0"/><use xlink:href="#L1_9" x="0" y="0"/><use xlink:href="#L1_9" x="350" y="0"/><use xlink:href="#L1_9" x="-350" y="350"/><use xlink:href="#L1_9" x="0" y="350"/><use xlink:href="#L1_9" x="350" y="350"/></pattern><rect x="0" y="0" width="100%" height="100%" fill="url(#pattern_L1_9)"/></g><g fi:class="KUsePattern" opacity="0.2"><pattern id="pattern_L1_11" width="350" height="350" patternUnits="userSpaceOnUse"><use xlink:href="#L1_11" x="-350" y="-350"/><use xlink:href="#L1_11" x="0" y="-350"/><use xlink:href="#L1_11" x="350" y="-350"/><use xlink:href="#L1_11" x="-350" y="0"/><use xlink:href="#L1_11" x="0" y="0"/><use xlink:href="#L1_11" x="350" y="0"/><use xlink:href="#L1_11" x="-350" y="350"/><use xlink:href="#L1_11" x="0" y="350"/><use xlink:href="#L1_11" x="350" y="350"/></pattern><rect x="0" y="0" width="100%" height="100%" fill="url(#pattern_L1_11)"/></g><g fi:class="KUsePattern" opacity="0.2"><pattern id="pattern_L1_12" width="350" height="350" patternUnits="userSpaceOnUse"><use xlink:href="#L1_12" x="-350" y="-350"/><use xlink:href="#L1_12" x="0" y="-350"/><use xlink:href="#L1_12" x="350" y="-350"/><use xlink:href="#L1_12" x="-350" y="0"/><use xlink:href="#L1_12" x="0" y="0"/><use xlink:href="#L1_12" x="350" y="0"/><use xlink:href="#L1_12" x="-350" y="350"/><use xlink:href="#L1_12" x="0" y="350"/><use xlink:href="#L1_12" x="350" y="350"/></pattern><rect x="0" y="0" width="100%" height="100%" fill="url(#pattern_L1_12)"/></g></svg>